<svg width="48" height="48" viewBox="0 0 48 48" fill="none" xmlns="http://www.w3.org/2000/svg">
<rect width="48" height="48" fill="#F24E1E"/>
<path d="M38 8.00004H29.64C29.2305 6.83092 28.4678 5.81795 27.4573 5.10128C26.4469 4.3846 25.2388 3.99963 24 3.99963C22.7612 3.99963 21.5531 4.3846 20.5427 5.10128C19.5322 5.81795 18.7695 6.83092 18.36 8.00004H10C8.94011 8.0032 7.92453 8.42565 7.17507 9.17511C6.42561 9.92457 6.00317 10.9401 6 12V40C6.00317 41.0599 6.42561 42.0755 7.17507 42.825C7.92453 43.5744 8.94011 43.9969 10 44H38C39.0599 43.9969 40.0755 43.5744 40.8249 42.825C41.5744 42.0755 41.9968 41.0599 42 40V12C41.9968 10.9401 41.5744 9.92457 40.8249 9.17511C40.0755 8.42565 39.0599 8.0032 38 8.00004ZM24 8.00004C24.3956 8.00004 24.7822 8.11734 25.1111 8.3371C25.44 8.55686 25.6964 8.86922 25.8478 9.23467C25.9991 9.60012 26.0387 10.0023 25.9616 10.3902C25.8844 10.7782 25.6939 11.1345 25.4142 11.4143C25.1345 11.694 24.7781 11.8844 24.3902 11.9616C24.0022 12.0388 23.6001 11.9992 23.2346 11.8478C22.8692 11.6964 22.5568 11.4401 22.3371 11.1112C22.1173 10.7823 22 10.3956 22 10C22.0016 9.47009 22.2128 8.9623 22.5875 8.58757C22.9623 8.21284 23.4701 8.00162 24 8.00004ZM20 18L25.58 23.588L30.62 18.548L28 16H36V24L33.448 21.378L25.584 29.248L20 23.66L14.828 28.828L12 26L20 18ZM38 38H10V34H38V38Z" fill="white"/>
</svg>
