<svg width="48" height="39" viewBox="0 0 48 39" fill="none" xmlns="http://www.w3.org/2000/svg">
<rect width="48" height="38.4" fill="#F24E1E"/>
<path d="M13.8 6.60002C13.8 8.91752 11.9175 10.8 9.6 10.8C7.28025 10.8 5.4 8.91752 5.4 6.60002C5.4 4.28027 7.28025 2.40002 9.6 2.40002C11.9175 2.40002 13.8 4.28027 13.8 6.60002ZM15.63 14.7225C13.4025 16.7025 12 19.59 12 22.8C12 25.3725 12.8325 27.735 14.4 29.5875V31.2C14.4 32.5275 13.3275 33.6 12 33.6H7.2C5.87475 33.6 4.8 32.5275 4.8 31.2V29.19C1.962 27.84 0 24.9525 0 21.6C0 16.9575 3.7605 13.2 8.4 13.2H10.8C12.5325 13.2 14.265 13.7625 15.63 14.7225ZM4.8 18.4275C4.053 19.2675 3.6 20.385 3.6 21.6C3.6 22.815 4.053 23.9325 4.8 24.7725V18.4275ZM33.6 31.2V29.5875C35.1 27.735 36 25.3725 36 22.8C36 19.59 34.5975 16.7025 32.37 14.7225C33.735 13.7625 35.4 13.2 37.2 13.2H39.6C44.2425 13.2 48 16.9575 48 21.6C48 24.9525 46.035 27.84 43.2 29.19V31.2C43.2 32.5275 42.1275 33.6 40.8 33.6H36C34.6725 33.6 33.6 32.5275 33.6 31.2ZM43.2 24.7725C43.8825 23.9325 44.4 22.815 44.4 21.6C44.4 20.385 43.8825 19.2675 43.2 18.4275V24.7725ZM42.6 6.60002C42.6 8.91752 40.7175 10.8 38.4 10.8C36.0825 10.8 34.2 8.91752 34.2 6.60002C34.2 4.28027 36.0825 2.40002 38.4 2.40002C40.7175 2.40002 42.6 4.28027 42.6 6.60002ZM19.2 7.20002C19.2 4.54877 21.3525 2.40002 24 2.40002C26.6475 2.40002 28.8 4.54877 28.8 7.20002C28.8 9.84752 26.6475 12 24 12C21.3525 12 19.2 9.84752 19.2 7.20002ZM33.6 22.8C33.6 26.1525 31.635 29.04 28.8 30.39V33.6C28.8 34.9275 27.7275 36 26.4 36H21.6C20.2725 36 19.2 34.9275 19.2 33.6V30.39C16.365 29.04 14.4 26.1525 14.4 22.8C14.4 18.1575 18.1575 14.4 22.8 14.4H25.2C29.8425 14.4 33.6 18.1575 33.6 22.8ZM19.2 25.9725V19.6275C18.45 20.4675 18 21.585 18 22.8C18 24.015 18.45 25.1325 19.2 25.9725ZM28.8 19.6275V25.9725C29.4825 25.125 30 24.015 30 22.8C30 21.585 29.4825 20.4675 28.8 19.6275Z" fill="white"/>
</svg>
