<svg width="48" height="48" viewBox="0 0 48 48" fill="none" xmlns="http://www.w3.org/2000/svg">
<rect width="48" height="48" fill="#F24E1E"/>
<path d="M38.2 3.33997L26.394 15.144C25.7062 15.8321 25.2181 16.6941 24.982 17.638L24.066 21.3C23.9749 21.6643 23.9797 22.0461 24.0801 22.408C24.1804 22.7699 24.3727 23.0997 24.6384 23.3651C24.9041 23.6306 25.234 23.8227 25.596 23.9227C25.958 24.0228 26.3397 24.0273 26.704 23.936L30.364 23.022C31.3088 22.7857 32.1716 22.2969 32.86 21.608L44.664 9.80397C45.4995 8.94229 45.9627 7.78662 45.9535 6.58642C45.9443 5.38622 45.4636 4.23775 44.615 3.38892C43.7665 2.5401 42.6182 2.05899 41.418 2.04946C40.2178 2.03993 39.0619 2.50273 38.2 3.33797V3.33997ZM8.5 5.99997H32.71L29.71 8.99997H8.5C8.13752 8.99999 7.78732 9.13126 7.51414 9.3695C7.24096 9.60775 7.0633 9.93686 7.014 10.296L7 10.5V31.504C7 32.264 7.564 32.89 8.296 32.99L8.5 33.004H39.498C39.8605 33.004 40.2107 32.8727 40.4839 32.6344C40.757 32.3962 40.9347 32.0671 40.984 31.708L40.998 31.504V16.3L43.998 13.3V31.504C43.9981 32.6442 43.5654 33.742 42.7873 34.5755C42.0091 35.4089 40.9436 35.9159 39.806 35.994L39.498 36.004H30.998V41H34.5C34.88 41.0001 35.2459 41.1445 35.5236 41.4039C35.8013 41.6634 35.9701 42.0186 35.9961 42.3977C36.022 42.7769 35.903 43.1518 35.6631 43.4466C35.4233 43.7414 35.0805 43.9342 34.704 43.986L34.5 44H13.5C13.12 43.9999 12.7541 43.8555 12.4764 43.596C12.1987 43.3366 12.0299 42.9814 12.0039 42.6022C11.978 42.223 12.097 41.8482 12.3369 41.5534C12.5767 41.2586 12.9195 41.0658 13.296 41.014L13.5 41H16.998V36.004H8.5C7.35975 36.0041 6.26196 35.5714 5.42849 34.7932C4.59503 34.0151 4.08804 32.9496 4.01 31.812L4 31.504V10.5C3.99986 9.35972 4.43259 8.26193 5.21074 7.42846C5.98889 6.595 7.05442 6.08802 8.192 6.00997L8.5 5.99997ZM27.996 36.004H19.996L19.998 41H27.998L27.996 36.004Z" fill="white"/>
</svg>
