<svg width="1320" height="534" viewBox="0 0 1320 534" fill="none" xmlns="http://www.w3.org/2000/svg">
<circle cx="67" cy="63" r="15" fill="white"/>
<circle cx="402" cy="400" r="15" fill="white"/>
<circle cx="1059" cy="196" r="15" fill="white"/>
<circle cx="146" cy="433" r="15" fill="white"/>
<circle cx="748" cy="457" r="15" fill="white"/>
<circle cx="1074" cy="18" r="15" fill="white"/>
<circle cx="1237" cy="243" r="15" fill="#873333" fill-opacity="0.65"/>
<circle cx="1035" cy="313" r="15" fill="#F24E1E"/>
<circle cx="302" cy="188" r="15" fill="#387938"/>
<circle cx="144" cy="263" r="15" fill="#478E47" fill-opacity="0.54"/>
<path d="M289.366 70.9517L267.715 18.4517L311.016 18.4517L289.366 70.9517Z" fill="#873333"/>
<path d="M1300.18 57.5838L1284.39 112.132L1250.53 85.1398L1300.18 57.5838Z" fill="white"/>
<path d="M1137.18 463.584L1121.39 518.132L1087.53 491.14L1137.18 463.584Z" fill="#D9D9D9"/>
<path d="M39.643 255.187L7.55011 208.336L49.9051 199.333L39.643 255.187Z" fill="#D9D9D9"/>
<path d="M267.183 357.584L251.387 412.132L217.528 385.14L267.183 357.584Z" fill="#F24E1E"/>
</svg>
