<svg width="36" height="36" viewBox="0 0 36 36" fill="none" xmlns="http://www.w3.org/2000/svg">
<path fill-rule="evenodd" clip-rule="evenodd" d="M36 0H0V36H36V0ZM9.75 4.5C9.55109 4.5 9.36032 4.57902 9.21967 4.71967C9.07902 4.86032 9 5.05109 9 5.25V6H5.25C5.05109 6 4.86032 6.07902 4.71967 6.21967C4.57902 6.36032 4.5 6.55109 4.5 6.75V11.25C4.5 12.2446 4.89509 13.1984 5.59835 13.9017C6.30161 14.6049 7.25544 15 8.25 15H9.51225C10.0483 16.5128 10.9787 17.8551 12.2071 18.888C13.4356 19.9209 14.9176 20.6071 16.5 20.8755V25.5H12C11.8011 25.5 11.6103 25.579 11.4697 25.7197C11.329 25.8603 11.25 26.0511 11.25 26.25V30.75C11.25 30.9489 11.329 31.1397 11.4697 31.2803C11.6103 31.421 11.8011 31.5 12 31.5H24C24.1989 31.5 24.3897 31.421 24.5303 31.2803C24.671 31.1397 24.75 30.9489 24.75 30.75V26.25C24.75 26.0511 24.671 25.8603 24.5303 25.7197C24.3897 25.579 24.1989 25.5 24 25.5H19.5V20.8755C21.0824 20.6071 22.5644 19.9209 23.7929 18.888C25.0213 17.8551 25.9517 16.5128 26.4878 15H27.75C28.7446 15 29.6984 14.6049 30.4016 13.9017C31.1049 13.1984 31.5 12.2446 31.5 11.25V6.75C31.5 6.55109 31.421 6.36032 31.2803 6.21967C31.1397 6.07902 30.9489 6 30.75 6H27V5.25C27 5.05109 26.921 4.86032 26.7803 4.71967C26.6397 4.57902 26.4489 4.5 26.25 4.5H9.75ZM27 7.5V13.5H27.75C28.3467 13.5 28.919 13.2629 29.341 12.841C29.7629 12.419 30 11.8467 30 11.25V7.5H27ZM6 7.5H9V13.5H8.25C7.65326 13.5 7.08097 13.2629 6.65901 12.841C6.23705 12.419 6 11.8467 6 11.25V7.5Z" fill="#F24E1E"/>
</svg>
